<svg xmlns="http://www.w3.org/2000/svg" width="916" height="962" viewBox="0 0 916 962" version="1.1"><path d="M 434.500 46.154 C 424.600 46.576, 414.478 47.288, 412.006 47.737 L 407.512 48.553 407.506 116.027 L 407.500 183.500 405 188.449 C 403.625 191.171, 400.779 194.764, 398.677 196.433 L 394.853 199.469 387.677 199.829 L 380.500 200.189 375.570 196.845 C 372.680 194.884, 369.783 191.845, 368.570 189.500 L 366.500 185.500 366.228 122.690 L 365.956 59.879 363.728 60.553 C 357.153 62.541, 337.980 70.925, 327.317 76.476 C 302.463 89.414, 283.135 103.919, 262.485 125.131 C 226.269 162.332, 202.904 207.506, 193.544 258.418 C 191.058 271.944, 189.009 290.589, 189.003 299.750 L 189 305 176.250 305.076 C 169.169 305.118, 162.084 305.674, 160.316 306.326 C 154.349 308.526, 148.571 313.492, 145.500 319.061 L 142.500 324.500 142.512 333 L 142.524 341.500 144.674 345.500 C 147.641 351.022, 152.480 355.690, 158.453 358.796 L 163.500 361.420 183.371 361.817 L 203.243 362.213 202.621 366.746 C 202.280 369.239, 202 374.758, 202 379.010 L 202 386.740 197.469 388.009 C 187.259 390.867, 176.867 401.722, 172.072 414.537 C 164.111 435.814, 168.826 469.122, 184.567 502.806 C 194.628 524.337, 209.327 541.536, 223.900 548.830 C 228.345 551.055, 233.906 553.163, 236.260 553.516 L 240.538 554.158 243.950 562.829 C 254.253 589.010, 273.511 622.924, 292.656 648.598 L 297.948 655.696 296.960 666.958 C 293.661 704.556, 282.959 723.158, 257.252 735.981 C 246.673 741.257, 239.128 744.189, 197.835 759.068 C 118.680 787.590, 103.208 795.352, 83.117 816.623 C 62.446 838.508, 53.805 863.281, 50.457 910.250 L 49.762 920 452.029 920 L 854.295 920 853.622 910.250 C 853.251 904.888, 852.062 894.425, 850.980 887 C 845.627 850.290, 837.122 831.012, 818.300 812.926 C 799.066 794.443, 780.051 785.269, 707.500 759.468 C 669.251 745.865, 653.949 739.811, 644.369 734.490 C 635.974 729.829, 622.646 716.778, 618.139 708.810 C 612.001 697.955, 607.862 682.416, 606.446 664.909 L 605.751 656.318 611.205 648.909 C 630.561 622.616, 650.590 587.030, 660.476 561.367 L 663.224 554.233 667.301 553.686 C 673.719 552.826, 686.826 545.758, 693.937 539.324 C 703.095 531.038, 711.212 519.573, 718.570 504.531 C 736.537 467.802, 740.728 433.048, 729.926 410.359 C 724.790 399.572, 714.920 390.473, 705.547 387.885 L 702 386.906 702 374.545 L 702 362.184 721.250 361.825 L 740.500 361.465 745.500 359.179 C 751.510 356.431, 755.303 352.984, 758.746 347.144 C 762.238 341.221, 763.049 330.036, 760.476 323.299 C 758.106 317.092, 751.674 310.246, 745.500 307.358 L 740.500 305.020 727.750 305.010 L 715 305 715 298.606 C 715 283.153, 711.591 259.493, 706.468 239.382 C 693.171 187.191, 660.991 137.254, 619 103.652 C 607.996 94.847, 589.129 82.735, 575.942 76.011 C 565.625 70.751, 546.288 62.372, 540.250 60.546 L 538 59.865 538 121.736 L 538 183.607 535.377 188.871 C 531.806 196.037, 526.793 199.291, 518.513 199.818 C 507.779 200.502, 499.293 194.257, 497.108 184.067 C 496.361 180.587, 496 157.594, 496 113.587 L 496 48.272 491.250 47.612 C 488.637 47.248, 480.875 46.724, 474 46.446 C 467.125 46.168, 459.475 45.816, 457 45.664 C 454.525 45.512, 444.400 45.732, 434.500 46.154 M 239 386.550 L 239 411.099 237.536 413.931 C 236.731 415.488, 234.600 418, 232.801 419.514 L 229.531 422.266 220.632 421.689 L 211.734 421.113 208.948 423.898 C 207.416 425.430, 205.624 428.668, 204.967 431.092 L 203.771 435.500 205.452 445.867 C 210.637 477.848, 224.693 506.507, 239.932 516.172 L 244.392 519 252.745 519 C 265.319 519, 269.350 521.846, 273.373 533.559 C 288.813 578.520, 312.827 619.090, 341.768 649.108 C 364.490 672.676, 386.791 687.647, 411.732 696.078 C 426.516 701.076, 435.084 702.413, 452.500 702.440 C 469.648 702.467, 478.272 701.154, 492.960 696.281 C 549.090 677.653, 602.835 615.267, 630.070 537.126 C 635.300 522.122, 639.034 519, 651.755 519 L 659.608 519 664.054 516.157 C 680.509 505.634, 694.781 475.996, 699.120 443.336 L 700.337 434.172 698.633 429.708 C 697.695 427.253, 696.002 424.407, 694.870 423.382 L 692.812 421.520 682.989 421.510 L 673.167 421.500 670.454 419 C 665.375 414.318, 665 412.049, 665 386.032 L 665 362 452 362 L 239 362 239 386.550 M 330.060 700.276 C 326.958 711.662, 322.442 722.184, 317.481 729.582 L 313.283 735.843 318.892 741.245 C 326.979 749.036, 333.147 753.856, 344.716 761.422 C 390.833 791.587, 449.597 800.593, 504.774 785.952 C 531.179 778.945, 557.596 765.123, 579.500 746.852 C 584.450 742.724, 589.104 738.609, 589.843 737.708 L 591.186 736.071 586.655 728.785 C 581.658 720.751, 577.071 709.976, 574.401 700 C 573.444 696.425, 572.389 693.173, 572.055 692.774 C 571.721 692.375, 568.093 694.790, 563.992 698.141 C 538.536 718.941, 508.449 733.071, 478.903 738.103 L 466.500 740.215 447.500 739.706 C 426.508 739.143, 417.648 737.642, 399.536 731.581 C 378.542 724.556, 359.447 713.459, 334.486 693.776 L 332.300 692.051 330.060 700.276" stroke="none" fill="currentColor" fill-rule="evenodd"/></svg>