<svg xmlns="http://www.w3.org/2000/svg" width="1024" height="1024" viewBox="0 0 1024 1000" version="1.1">
    <path d="M 210.516 192.654 C 174.397 200.419, 147.046 229.066, 140.011 266.500 C 139.219 270.710, 138.975 294.577, 139.191 346.500 L 139.500 420.500 142.367 429 C 151.013 454.627, 165.827 471.910, 188.256 482.536 C 199.596 487.909, 209.382 490, 223.182 490 L 235.043 490 234.772 509.250 L 234.500 528.500 222.500 529.152 C 208.733 529.901, 203.845 530.878, 193.062 535.036 C 166.987 545.092, 146.482 570.320, 140.560 599.628 C 139.105 606.831, 138.953 616.505, 139.224 684.628 L 139.529 761.500 142.281 770.322 C 145.515 780.689, 147.617 785.023, 154.016 794.516 C 166.325 812.777, 188.345 826.603, 210.500 829.982 C 215.374 830.725, 307.705 830.966, 514.500 830.775 L 811.500 830.500 819.500 828.234 C 852.261 818.955, 876.714 793.308, 882.611 762.042 C 883.829 755.581, 884.019 741.513, 883.760 676.901 C 883.451 599.931, 883.436 599.459, 881.201 592.179 C 874.351 569.866, 857.953 549.916, 837.340 538.816 C 826.803 533.142, 814.566 529.952, 800.750 529.279 L 789 528.706 789 509.486 L 789 490.265 801.750 489.725 C 816.280 489.108, 825.110 486.972, 836.321 481.360 C 860.575 469.219, 877.176 448.120, 882.409 422.785 C 883.780 416.151, 883.997 405.004, 883.978 342.292 C 883.958 273.471, 883.849 269.011, 881.977 260.542 C 875.310 230.384, 850.265 204.254, 818.500 194.316 L 809.500 191.500 513.500 191.327 C 253.585 191.174, 216.649 191.336, 210.516 192.654 M 216.500 228.485 C 195.496 233.129, 179.824 248.061, 174.543 268.460 C 172.247 277.329, 172.234 406.640, 174.528 415.448 C 178.245 429.716, 188.446 442.663, 200.943 448.971 C 213.825 455.474, 192.477 455.079, 515 454.775 C 779.054 454.527, 807.938 454.346, 812 452.914 C 833.899 445.195, 847.068 430.255, 849.937 409.876 C 850.775 403.923, 851.018 382.701, 850.777 336.500 C 850.466 276.989, 850.285 271.036, 848.625 266 C 842.416 247.154, 826.092 232.555, 806.792 228.585 C 799.856 227.159, 770.234 227.008, 510.792 227.079 C 275.206 227.144, 221.403 227.401, 216.500 228.485 M 556.180 290.675 C 549.428 294.016, 545.284 302.814, 547.194 309.750 C 548.652 315.042, 551.545 318.727, 556.044 321.023 C 559.836 322.957, 562.316 323, 670.622 323 L 781.324 323 785.423 320.598 C 796.235 314.261, 796.787 299.849, 786.525 291.826 L 783.549 289.500 671.525 289.266 C 569.328 289.052, 559.209 289.176, 556.180 290.675 M 256.929 307.303 C 246.529 310.254, 237.902 317.715, 233.135 327.880 C 230.933 332.576, 230.500 334.902, 230.502 342.024 C 230.503 349.618, 230.858 351.269, 233.751 357.147 C 237.603 364.970, 243.880 371.115, 251.825 374.840 C 256.652 377.103, 258.844 377.500, 266.500 377.500 C 274.172 377.500, 276.344 377.105, 281.218 374.820 C 305.041 363.654, 310.719 334.666, 292.627 316.574 C 283.959 307.906, 268.736 303.953, 256.929 307.303 M 368.500 307.334 C 354.485 311.994, 345.244 322.451, 343.060 336.121 C 340.042 355.015, 351.001 371.967, 369.257 376.644 C 382.361 380.002, 395.787 376.148, 405.028 366.377 C 412.621 358.349, 414.498 353.516, 414.499 342 C 414.500 333.793, 414.137 331.725, 411.830 326.804 C 408.464 319.623, 402.027 313.139, 394.711 309.560 C 387.884 306.219, 375.113 305.135, 368.500 307.334 M 554.922 361.274 C 547.604 366.205, 544.749 375.746, 548.449 382.901 C 550.572 387.006, 556.474 391.814, 560.229 392.495 C 562.028 392.822, 612.810 392.957, 673.078 392.795 L 782.656 392.500 786.413 389.634 C 792.403 385.065, 794.172 381.468, 793.740 374.737 C 793.329 368.334, 791.353 364.886, 786.010 361.250 L 782.704 359 670.500 359 L 558.296 359 554.922 361.274 M 268.228 509.250 L 268.500 528.500 512.250 528.752 L 756 529.004 756 509.502 L 756 490 511.978 490 L 267.957 490 268.228 509.250 M 207.762 567.938 C 191.711 573.081, 178.633 587.730, 174.521 605.175 C 173.272 610.472, 173.037 622.792, 173.072 681 C 173.111 743.388, 173.291 751.173, 174.833 757.081 C 179.151 773.620, 191.749 786.171, 209.543 791.662 C 215.268 793.428, 226.983 793.500, 510.500 793.500 C 789.292 793.500, 805.851 793.403, 811.887 791.736 C 832.947 785.918, 847.306 770.026, 850.048 749.500 C 850.747 744.272, 851.002 718.283, 850.784 674.500 C 850.456 608.544, 850.417 607.399, 848.251 601 C 843.319 586.433, 832.118 574.841, 817.105 568.768 L 811.500 566.500 512.500 566.300 C 224.694 566.107, 213.285 566.168, 207.762 567.938 M 555.389 629.905 C 543.990 636.856, 543.988 652.885, 555.386 659.929 C 558.722 661.991, 559.214 662, 670.418 662 C 764.386 662, 782.528 661.777, 784.800 660.595 C 791.503 657.107, 795.756 648.523, 794.005 642.018 C 792.590 636.762, 789.079 632.011, 785.016 629.852 C 781.684 628.081, 776.635 628, 670.016 628.004 C 562.276 628.007, 558.395 628.072, 555.389 629.905 M 259.132 643.017 C 238.957 647.262, 225.924 668.239, 231.449 687.572 C 234.344 697.704, 240.945 705.827, 250.283 710.750 C 255.015 713.244, 256.477 713.500, 266 713.500 C 275.209 713.500, 277.176 713.182, 282 710.914 C 296.421 704.132, 305.344 688.036, 302.946 673.128 C 299.696 652.921, 279.153 638.804, 259.132 643.017 M 371.195 643.006 C 364.749 644.366, 358.194 647.980, 353.289 652.876 C 335.633 670.503, 340.457 699.729, 362.836 710.719 C 367.895 713.203, 369.578 713.500, 378.601 713.500 C 388.174 713.500, 389.060 713.317, 395.550 710 C 403.698 705.836, 409.698 699.073, 412.990 690.344 C 415.973 682.433, 415.516 670.763, 411.942 663.582 C 404.211 648.049, 387.437 639.579, 371.195 643.006 M 555.830 698.027 C 550.428 700.881, 547.670 705.339, 547.227 711.935 C 546.909 716.672, 547.257 718.112, 549.562 721.614 C 551.052 723.877, 553.673 726.577, 555.386 727.614 C 558.377 729.426, 562.725 729.512, 665.500 729.801 C 724.350 729.966, 774.840 729.824, 777.700 729.485 C 783.684 728.776, 788.473 725.906, 791.726 721.078 C 796.709 713.685, 793.201 702.212, 784.698 698.096 C 780.381 696.006, 780.056 696, 669.934 696.044 C 562.644 696.087, 559.396 696.144, 555.830 698.027" stroke="currentColor" fill="currentColor" fill-rule="evenodd"/></svg>